<?xml version="1.0" standalone="no"?>
<!DOCTYPE svg PUBLIC "-//W3C//DTD SVG 20010904//EN"
 "http://www.w3.org/TR/2001/REC-SVG-20010904/DTD/svg10.dtd">
<svg version="1.0" xmlns="http://www.w3.org/2000/svg"
 width="512.000000pt" height="512.000000pt" viewBox="0 0 512.000000 512.000000"
 preserveAspectRatio="xMidYMid meet">

<g transform="translate(0.000000,512.000000) scale(0.100000,-0.100000)"
fill="#000000" stroke="none">
<path d="M2420 4914 c-354 -46 -671 -289 -811 -623 -64 -153 -71 -198 -79
-531 -6 -273 -9 -311 -28 -362 -62 -171 -178 -280 -372 -350 -86 -31 -163 -83
-238 -162 -58 -60 -62 -68 -62 -110 0 -79 7 -84 504 -300 273 -119 461 -196
481 -196 20 0 39 8 54 24 21 22 22 32 26 267 2 180 9 279 24 376 59 385 181
655 385 850 104 101 158 128 251 128 94 -1 154 -33 260 -139 194 -195 311
-456 371 -831 10 -64 18 -194 21 -364 5 -260 6 -265 29 -288 14 -14 35 -23 55
-23 25 0 812 335 932 397 37 19 61 75 52 122 -5 26 -25 54 -78 106 -75 73
-145 116 -261 159 -38 15 -85 36 -105 48 -59 36 -139 118 -175 177 -66 109
-69 127 -77 446 -7 301 -15 364 -60 496 -110 323 -382 573 -717 660 -76 20
-300 33 -382 23z"/>
<path d="M2167 3343 c-39 -44 -7 -127 62 -163 31 -15 59 -20 120 -20 75 0 82
2 97 26 16 24 16 27 -12 67 -44 62 -112 100 -188 105 -51 3 -64 1 -79 -15z"/>
<path d="M2773 3339 c-53 -26 -123 -101 -123 -132 0 -38 19 -47 102 -47 91 0
133 15 171 59 35 43 44 78 26 110 -13 23 -22 26 -74 29 -45 2 -71 -3 -102 -19z"/>
<path d="M2142 2905 c-26 -33 -37 -134 -36 -335 0 -166 18 -345 39 -397 17
-42 35 -52 211 -125 196 -81 199 -81 413 8 142 59 168 74 184 101 31 53 49
257 44 483 -8 325 -23 339 -236 220 -189 -106 -233 -105 -428 6 -126 71 -160
78 -191 39z"/>
<path d="M662 2488 c-20 -20 -14 -45 29 -115 369 -603 854 -1071 1384 -1335
325 -163 651 -252 1015 -278 195 -14 312 -5 350 27 37 31 180 301 180 340 0
18 -9 38 -23 51 -21 20 -2893 1322 -2915 1322 -4 0 -13 -5 -20 -12z"/>
<path d="M3634 2142 c-436 -197 -799 -364 -808 -371 -10 -8 -16 -25 -14 -40 3
-24 33 -39 348 -183 223 -101 357 -157 380 -157 47 -1 74 17 210 141 186 170
392 412 559 658 108 158 161 247 161 268 0 20 -18 42 -34 42 -6 -1 -367 -162
-802 -358z"/>
<path d="M1022 1300 c-44 -11 -72 -38 -72 -70 0 -15 20 -73 45 -129 52 -118
58 -169 23 -221 -17 -25 -95 -76 -293 -193 -257 -151 -271 -158 -301 -148 -88
31 -186 -5 -223 -82 -26 -53 -26 -90 -2 -142 61 -135 242 -139 310 -8 18 36
22 38 302 135 410 144 413 144 513 -79 78 -174 100 -190 188 -134 54 34 88 97
88 161 0 46 -57 174 -291 657 -92 190 -100 203 -141 226 -50 30 -100 39 -146
27z"/>
<path d="M4014 1301 c-45 -11 -87 -39 -111 -74 -12 -18 -102 -198 -199 -402
-198 -414 -205 -436 -164 -521 16 -31 37 -55 68 -75 88 -56 110 -40 188 134
100 223 103 223 513 79 280 -97 284 -99 302 -135 53 -103 184 -128 268 -51
117 105 46 294 -110 294 -23 0 -56 -5 -73 -11 -30 -10 -44 -3 -301 148 -196
116 -276 169 -292 193 -36 52 -31 103 23 221 51 114 54 152 14 180 -30 21 -84
29 -126 20z"/>
<path d="M1517 1152 c-10 -10 -17 -27 -17 -36 0 -30 149 -304 180 -329 24 -21
43 -25 132 -31 97 -6 349 7 369 19 5 4 9 15 9 26 0 15 -26 31 -113 72 -138 65
-303 160 -417 238 -90 63 -117 70 -143 41z"/>
</g>
</svg>
